<svg xmlns="http://www.w3.org/2000/svg" xmlns:xlink="http://www.w3.org/1999/xlink" viewBox="0,0,256,256" width="40px" height="40px" fill-rule="nonzero"><g fill="#ed0000" fill-rule="nonzero" stroke="none" stroke-width="1" stroke-linecap="butt" stroke-linejoin="miter" stroke-miterlimit="10" stroke-dasharray="" stroke-dashoffset="0" font-family="none" font-weight="none" font-size="none" text-anchor="none" style="mix-blend-mode: normal"><g transform="scale(5.12,5.12)"><path d="M24.92969,2.00195c-0.10987,0.0005 -0.22067,0.01869 -0.32617,0.05469l-20.93164,7.28516c-0.444,0.154 -0.72206,0.59745 -0.66406,1.06445l3.30859,27.12305c0.039,0.321 0.22867,0.60381 0.51367,0.75781l17.64844,9.5918c0.148,0.081 0.31256,0.12109 0.47656,0.12109c0.165,0 0.33147,-0.04105 0.48047,-0.12305l17.73828,-9.72266c0.282,-0.155 0.47372,-0.43686 0.51172,-0.75586l3.30664,-27.12109c0.058,-0.469 -0.22288,-0.91636 -0.67188,-1.06836l-21.06641,-7.15625c-0.105,-0.035 -0.21434,-0.05128 -0.32422,-0.05078zM25,7l13,28h-4.4375l-2.78125,-5.99219h-11.5625l-2.78125,5.99219h-4.4375zM25,16.5l-3.91992,8.5h7.83984z"></path></g></g></svg>