<svg xmlns="http://www.w3.org/2000/svg" xmlns:xlink="http://www.w3.org/1999/xlink" viewBox="0,0,256,256" width="40px" height="40px" fill-rule="nonzero"><defs><linearGradient x1="32.125" y1="44.574" x2="32.125" y2="60.885" gradientUnits="userSpaceOnUse" id="color-1"><stop offset="0" stop-color="#eaee83"></stop><stop offset="1" stop-color="#fdc599"></stop></linearGradient><linearGradient x1="32" y1="2.824" x2="32" y2="62.426" gradientUnits="userSpaceOnUse" id="color-2"><stop offset="0" stop-color="#d9e021"></stop><stop offset="1" stop-color="#fb872b"></stop></linearGradient><linearGradient x1="32.126" y1="2.824" x2="32.126" y2="62.426" gradientUnits="userSpaceOnUse" id="color-3"><stop offset="0" stop-color="#d9e021"></stop><stop offset="1" stop-color="#fb872b"></stop></linearGradient><linearGradient x1="32.023" y1="6.948" x2="32.023" y2="36.278" gradientUnits="userSpaceOnUse" id="color-4"><stop offset="0" stop-color="#eaee83"></stop><stop offset="1" stop-color="#fdc599"></stop></linearGradient></defs><g fill="none" fill-rule="nonzero" stroke="none" stroke-width="1" stroke-linecap="butt" stroke-linejoin="miter" stroke-miterlimit="10" stroke-dasharray="" stroke-dashoffset="0" font-family="none" font-weight="none" font-size="none" text-anchor="none" style="mix-blend-mode: normal"><g transform="scale(4,4)"><path d="M32,47c-4.272,0 -7.909,-0.94 -9.341,-2.259c-0.323,2.335 -0.411,6.507 2.341,9.259c0,0 0.615,-3.824 3.5,-3c1.75,0.5 1.25,3 1.25,4.875c0,1 0.25,3.125 4.25,5.125c0,0 -2,-5 4,-8c4.198,-2.099 3.989,-6.15 3.486,-8.397c-1.321,1.392 -5.065,2.397 -9.486,2.397z" fill="url(#color-1)"></path><path d="M51,42c-0.099,0 -0.197,-0.015 -0.294,-0.044l-13,-4c-0.338,-0.104 -0.596,-0.379 -0.679,-0.723l-5.103,-21.259l-5.961,21.296c-0.09,0.319 -0.332,0.574 -0.646,0.679l-12,4c-0.355,0.12 -0.745,0.029 -1.012,-0.229c-0.268,-0.26 -0.369,-0.646 -0.264,-1.004l11,-37c0.127,-0.425 0.517,-0.716 0.959,-0.716h16c0.442,0 0.832,0.291 0.959,0.715l11,37c0.104,0.354 0.007,0.736 -0.255,0.996c-0.19,0.187 -0.444,0.289 -0.704,0.289zM38.839,36.212l10.671,3.283l-10.256,-34.495h-14.508l-10.24,34.444l9.675,-3.226l5.819,-20.782c0.249,-0.891 1.055,-1.451 1.963,-1.461c0.925,0.018 1.691,0.634 1.907,1.533z" fill="url(#color-2)"></path><path d="M33.996,61.999c-0.151,0 -0.303,-0.034 -0.443,-0.104c-3.187,-1.594 -4.803,-3.619 -4.803,-6.02c0,-0.351 0.017,-0.722 0.033,-1.099c0.069,-1.535 0.07,-2.636 -0.558,-2.814c-0.593,-0.171 -0.918,-0.027 -1.11,0.094c-0.718,0.457 -1.063,1.703 -1.128,2.104c-0.06,0.37 -0.322,0.677 -0.68,0.792c-0.356,0.118 -0.749,0.021 -1.015,-0.244c-3.074,-3.074 -2.964,-7.649 -2.624,-10.103c0.051,-0.369 0.303,-0.679 0.652,-0.805c0.35,-0.125 0.741,-0.047 1.016,0.206c1.043,0.96 4.198,1.994 8.664,1.994c4.453,0 7.777,-1.049 8.76,-2.086c0.254,-0.268 0.635,-0.373 0.991,-0.275c0.356,0.098 0.629,0.385 0.71,0.745c0.961,4.288 -0.502,7.754 -4.014,9.511c-4.981,2.49 -3.681,6.313 -3.517,6.74c0.148,0.385 0.046,0.825 -0.26,1.103c-0.188,0.171 -0.43,0.261 -0.674,0.261zM27.724,49.885c0.34,0 0.692,0.051 1.051,0.153c2.196,0.628 2.087,3.056 2.007,4.828c-0.016,0.346 -0.031,0.687 -0.031,1.009c0,0.476 0,1.736 1.946,3.177c-0.002,-2.017 0.813,-4.924 4.856,-6.946c2.722,-1.361 3.322,-3.673 3.183,-5.761c-1.998,1.031 -5.18,1.655 -8.736,1.655c-3.382,0 -6.477,-0.579 -8.489,-1.537c-0.062,1.66 0.14,3.727 1.153,5.47c0.308,-0.578 0.75,-1.165 1.378,-1.564c0.505,-0.322 1.074,-0.484 1.682,-0.484z" fill="url(#color-3)"></path><path d="M37.762,7h-11.524l-8.72,29.332l5.023,-1.675l5.533,-19.76c0.483,-1.728 2.037,-2.903 3.868,-2.922h0.03l0.03,0.001c1.85,0.035 3.382,1.267 3.814,3.066l4.703,19.595l6.011,1.849z" fill="url(#color-4)"></path></g></g></svg>